<!-- Professional Bluetooth Speaker SVG -->
<svg class="product-svg" xmlns="http://www.w3.org/2000/svg" viewBox="0 0 200 200">
  <defs>
    <linearGradient id="speakerGradient" x1="0%" y1="0%" x2="100%" y2="100%">
      <stop offset="0%" style="stop-color:#667eea;stop-opacity:1" />
      <stop offset="100%" style="stop-color:#764ba2;stop-opacity:1" />
    </linearGradient>
    <radialGradient id="driverGradient" cx="50%" cy="50%" r="50%">
      <stop offset="0%" style="stop-color:#333;stop-opacity:1" />
      <stop offset="100%" style="stop-color:#666;stop-opacity:1" />
    </radialGradient>
  </defs>
  <!-- Speaker body -->
  <rect x="60" y="70" width="80" height="60" rx="30" fill="url(#speakerGradient)" stroke="#fff" stroke-width="2"/>
  <!-- Main driver -->
  <circle cx="100" cy="100" r="20" fill="url(#driverGradient)" stroke="#fff" stroke-width="1"/>
  <circle cx="100" cy="100" r="15" fill="#000" opacity="0.8"/>
  <circle cx="100" cy="100" r="8" fill="url(#speakerGradient)"/>
  <circle cx="100" cy="100" r="3" fill="#fff"/>
  <!-- Tweeter -->
  <circle cx="80" cy="85" r="8" fill="url(#driverGradient)" stroke="#fff" stroke-width="1"/>
  <circle cx="80" cy="85" r="5" fill="#000" opacity="0.6"/>
  <circle cx="80" cy="85" r="2" fill="#fff"/>
  <!-- Another tweeter -->
  <circle cx="120" cy="115" r="8" fill="url(#driverGradient)" stroke="#fff" stroke-width="1"/>
  <circle cx="120" cy="115" r="5" fill="#000" opacity="0.6"/>
  <circle cx="120" cy="115" r="2" fill="#fff"/>
  <!-- Control buttons -->
  <circle cx="130" cy="80" r="4" fill="rgba(255,255,255,0.8)"/>
  <circle cx="130" cy="95" r="4" fill="rgba(255,255,255,0.8)"/>
  <circle cx="130" cy="110" r="4" fill="rgba(255,255,255,0.8)"/>
  <!-- Power LED -->
  <circle cx="75" cy="75" r="2" fill="#00f2fe"/>
  <!-- Grille pattern -->
  <g stroke="rgba(255,255,255,0.3)" stroke-width="0.5">
    <line x1="65" y1="75" x2="135" y2="75"/>
    <line x1="65" y1="85" x2="135" y2="85"/>
    <line x1="65" y1="115" x2="135" y2="115"/>
    <line x1="65" y1="125" x2="135" y2="125"/>
  </g>
  <!-- Bluetooth icon -->
  <g fill="#4facfe" opacity="0.8" transform="translate(105, 75) scale(0.3)">
    <path d="M12 2l-2 2v6l-3-3-1 1 4 4-4 4 1 1 3-3v6l2 2 5-5-4-4 4-4-5-5zm0 2.8l2.2 2.2-2.2 2.2V4.8zm0 6.4l2.2 2.2L12 15.2v-3.2z"/>
  </g>
</svg>