<!-- Professional Running Shoes SVG -->
<svg class="product-svg" xmlns="http://www.w3.org/2000/svg" viewBox="0 0 200 200">
  <defs>
    <linearGradient id="shoeGradient" x1="0%" y1="0%" x2="100%" y2="100%">
      <stop offset="0%" style="stop-color:#667eea;stop-opacity:1" />
      <stop offset="100%" style="stop-color:#764ba2;stop-opacity:1" />
    </linearGradient>
    <linearGradient id="soleGradient" x1="0%" y1="0%" x2="100%" y2="100%">
      <stop offset="0%" style="stop-color:#333;stop-opacity:1" />
      <stop offset="100%" style="stop-color:#666;stop-opacity:1" />
    </linearGradient>
  </defs>
  <!-- Shoe sole -->
  <ellipse cx="120" cy="140" rx="60" ry="15" fill="url(#soleGradient)"/>
  <!-- Main shoe body -->
  <path d="M 70 120 Q 60 100 80 90 L 140 85 Q 160 90 150 110 L 145 130 Q 140 140 120 140 L 80 140 Q 70 135 70 120 Z" fill="url(#shoeGradient)" stroke="#fff" stroke-width="2"/>
  <!-- Toe cap -->
  <path d="M 140 85 Q 160 85 155 105 Q 150 120 135 125 L 140 85 Z" fill="rgba(255,255,255,0.3)"/>
  <!-- Shoe laces -->
  <g stroke="#fff" stroke-width="2" fill="none">
    <path d="M 90 95 Q 100 90 110 95"/>
    <path d="M 95 105 Q 105 100 115 105"/>
    <path d="M 100 115 Q 110 110 120 115"/>
  </g>
  <!-- Eyelets -->
  <g fill="#333">
    <circle cx="88" cy="98" r="2"/>
    <circle cx="112" cy="98" r="2"/>
    <circle cx="93" cy="108" r="2"/>
    <circle cx="117" cy="108" r="2"/>
    <circle cx="98" cy="118" r="2"/>
    <circle cx="122" cy="118" r="2"/>
  </g>
  <!-- Nike-style swoosh -->
  <path d="M 80 115 Q 120 105 140 120 Q 135 125 95 120 Z" fill="rgba(255,255,255,0.4)"/>
  <!-- Heel counter -->
  <path d="M 70 120 Q 65 110 75 105 L 85 110 Q 80 120 70 120 Z" fill="rgba(0,0,0,0.2)"/>
</svg>